#tb 0: 1/1000
0,          0,          0,        0,    63024, d2128e290be81bb0700ebe19e3faed4f
0,         33,         33,        0,    63024, dccaecb7e4ddb7e4224221a659af2a43
0,         66,         66,        0,    63024, be8e0966aaf3a9fe9164f63695dc3b62
0,        100,        100,        0,    63024, da944fadc3a239c2254678cadb4cf7fa
0,        133,        133,        0,    63024, 3c270f3c02fcbd192b7f896f3f9ee6d9
0,        166,        166,        0,    63024, 0b3ccda0a87c37e40104ae2f1060e8e9
0,        200,        200,        0,    63024, 254253aba91758f302e7177e614596be
0,        233,        233,        0,    63024, b1501a4e372a5249e74aab77e57a28f1
0,        266,        266,        0,    63024, c4497fea1cefed5cf2b2908620153d26
0,        300,        300,        0,    63024, 5ba20dfa2400b15b5394f315c5c3707d
